<svg xmlns="http://www.w3.org/2000/svg" width="98" height="118" viewBox="0 0 98 118">
	<defs>
		<style>
			.a {fill: #7ec243;}
			.b {fill: #5fbb47;}
		</style>
	</defs>
	<g>
		<path class="a" d="M66.51,11h3.93c1,.25,2,.47,2.94.75a17.24,17.24,0,0,1,12.18,16.2,1.08,1.08,0,0,0,.82,1.21A16.73,16.73,0,0,1,95,52.27a16.31,16.31,0,0,1-6,6.54c-.33.21-.73.34-.27.88a11.47,11.47,0,0,1,2.55,10.39c-.43,2-1.69,3-3.68,2.57-2.84-.56-5.68-1.17-8.53-1.68-5.2-.92-9.69.43-13.08,4.57A13.52,13.52,0,0,0,63.42,87.8c1.74,7.22-1.36,13.2-7,17.88,0-.21-.08-.42-.13-.64-2.69-11-5.36-22-8.09-33a1.34,1.34,0,0,1,.9-1.85c2.16-1,4.27-2.08,6.37-3.17a2.93,2.93,0,0,0,1.66-3.71,2.8,2.8,0,0,0-4-1.41c-1.72.75-3.38,1.61-5.05,2.47-.68.34-.86.17-.87-.55a29,29,0,0,1,.4-4.65c1.12-7,4.61-12.47,10.87-16a2,2,0,0,1,2.51.17c2.82,2.16,5.72,4.22,8.58,6.33a2.78,2.78,0,0,0,3.89-.29,2.62,2.62,0,0,0-.35-4c-.76-.69-1.62-1.26-2.44-1.88l-4-3a1.14,1.14,0,0,1,.83-.42c1.59-.43,3.2-.8,4.78-1.29a2.63,2.63,0,0,0,1.81-3.23,2.79,2.79,0,0,0-3.39-2c-1.64.39-3.26.83-4.91,1.18-7.19,1.53-13.54,4.46-18.12,10.49-.13.16-.27.44-.5.32s-.22-.36-.26-.57c-.28-1.18-.52-2.38-.81-3.56a3,3,0,0,0-3.44-2.3,2.84,2.84,0,0,0-2,3.55c.65,3,1.31,5.9,2,8.84a7.55,7.55,0,0,1,0,4.29,29.62,29.62,0,0,0-1,11.12,66.66,66.66,0,0,0,2,11.12c2.23,9.31,4.76,18.55,7.2,27.8,0,.2.2.41-.08.63-.13-.11-.27-.21-.4-.33a81.53,81.53,0,0,1-6.89-7.51,68.64,68.64,0,0,1-10.59-16.9A43.15,43.15,0,0,1,30,71.91c-.13-.8-.08-1.66-.91-2.24a11.74,11.74,0,0,1-3.35-3.73c-3-5.08-2.74-10.09.39-15,.35-.54.18-.88-.09-1.34a13.82,13.82,0,0,1-2.18-9.9A14.11,14.11,0,0,1,32,29c1-.47,2.2-.4,2.92-1.15s.72-1.95,1.14-2.93a14.46,14.46,0,0,1,12.46-8.37,19.62,19.62,0,0,1,5.06.77,1.24,1.24,0,0,0,1,.35c.51.49.62-.12.8-.34a17.2,17.2,0,0,1,9.26-5.91A5.61,5.61,0,0,0,66.51,11Z"/>
		<path class="b" d="M53.59,17.34a19.62,19.62,0,0,0-5.06-.77,14.46,14.46,0,0,0-12.46,8.37c-.42,1-.43,2.19-1.14,2.93S33,28.55,32,29a14.11,14.11,0,0,0-8.2,10.67A13.82,13.82,0,0,0,26,49.59c.27.46.44.8.09,1.34-3.13,4.92-3.34,9.93-.39,15A11.74,11.74,0,0,0,29,69.67c.83.58.78,1.44.91,2.24a43.15,43.15,0,0,0,2.94,9.83,68.64,68.64,0,0,0,10.59,16.9,81.53,81.53,0,0,0,6.89,7.51c.13.12.27.22.4.33.28-.22.13-.43.08-.63-2.44-9.25-5-18.49-7.2-27.8a66.66,66.66,0,0,1-2-11.12,29.62,29.62,0,0,1,1-11.12,7.55,7.55,0,0,0,0-4.29c-.71-2.94-1.37-5.89-2-8.84a2.84,2.84,0,0,1,2-3.55,3,3,0,0,1,3.44,2.3c.29,1.18.53,2.38.81,3.56,0,.21.11.49.26.57s.37-.16.5-.32c4.58-6,10.93-9,18.12-10.49,1.65-.35,3.27-.79,4.91-1.18a2.79,2.79,0,0,1,3.39,2,2.63,2.63,0,0,1-1.81,3.23c-1.58.49-3.19.86-4.78,1.29a1.14,1.14,0,0,0-.83.42l4,3c.82.62,1.68,1.19,2.44,1.88a2.62,2.62,0,0,1,.35,4,2.78,2.78,0,0,1-3.89.29c-2.86-2.11-5.76-4.17-8.58-6.33a2,2,0,0,0-2.51-.17c-6.26,3.57-9.75,9-10.87,16a29,29,0,0,0-.4,4.65c0,.72.19.89.87.55,1.67-.86,3.33-1.72,5.05-2.47a2.8,2.8,0,0,1,4,1.41A2.93,2.93,0,0,1,55.45,67c-2.1,1.09-4.21,2.18-6.37,3.17a1.34,1.34,0,0,0-.9,1.85c2.73,11,5.4,22,8.09,33,0,.22.09.43.13.64a5.41,5.41,0,0,1-2.49,1,24.7,24.7,0,0,1-5.57,0,39.51,39.51,0,0,1-11.63-2.87,31.49,31.49,0,0,1-9.72-6A.83.83,0,0,0,26,97a2.34,2.34,0,0,1-.71-.69c0-.41-.13-.64-.56-.64-.29-.32-.61-.62-.88-1a62.17,62.17,0,0,1-8.87-15,1.94,1.94,0,0,0-1.19-1.2,11.77,11.77,0,0,1-3.44-2A12.73,12.73,0,0,1,6,70.37c.11-.26.2-.51-.21-.59a2,2,0,0,1-.16-.33,13.64,13.64,0,0,1,.25-8.24,1.07,1.07,0,0,0-.36-1.36,9.91,9.91,0,0,1-2.88-3.94c.18-.25,0-.32-.19-.37A2,2,0,0,1,2,54.63c-.36-1.07-.7-2.14-1-3.22v-.74a3,3,0,0,0,0-2.25V47.3c.31-.11.23-.42.28-.64a14.17,14.17,0,0,1,6.9-9.6A1,1,0,0,0,8.69,36,12.34,12.34,0,0,1,10,30.07c.21-.06.36-.15.17-.38,2.14-5.2,8.83-8.93,14.35-8,.82.15,1.12-.09,1.44-.81a16.57,16.57,0,0,1,10-9.1c1-.34,2-.29,2.9-.86h1.31a1.2,1.2,0,0,0,1.31,0H43.1c.11.28.37.17.56.2a17.13,17.13,0,0,1,10,5.33Z"/>
		<path class="b" d="M1,48.42a3,3,0,0,1,0,2.25Z"/>
		<path class="b" d="M41.42,11a1.2,1.2,0,0,1-1.31,0Z"/>
		<path class="b" d="M53.62,16.5a4.94,4.94,0,0,1,1,1.19,1.24,1.24,0,0,1-1-.35Z"/>
		<path class="b" d="M27,97.88A3.29,3.29,0,0,1,26,97,.83.83,0,0,1,27,97.88Z"/>
		<path class="b" d="M25.28,96.26l-.56-.64C25.15,95.62,25.32,95.85,25.28,96.26Z"/>
		<path class="b" d="M6,70.37a.77.77,0,0,1-.21-.59C6.21,69.86,6.12,70.11,6,70.37Z"/>
		<path class="b" d="M10,30.07a.4.4,0,0,1,.17-.38C10.32,29.92,10.17,30,10,30.07Z"/>
		<path class="b" d="M2.65,55.91a.42.42,0,0,1-.19-.37C2.67,55.59,2.83,55.66,2.65,55.91Z"/>
	</g>
</svg>
