<?xml version="1.0" encoding="utf-8"?>
<!-- Generator: Adobe Illustrator 26.0.3, SVG Export Plug-In . SVG Version: 6.00 Build 0)  -->
<svg version="1.1" id="hamber" xmlns="http://www.w3.org/2000/svg" xmlns:xlink="http://www.w3.org/1999/xlink" x="0px" y="0px"
	 viewBox="0 0 519 139" style="enable-background:new 0 0 519 139;" xml:space="preserve">
<style type="text/css">
	.st0{fill:#56C125;}
	.st1{fill:#70D940;}
	.st2{fill:#4A4A55;}
	.st3{font-family:'Arial';}
	.st4{font-size:81.9919px;}
</style>
<g>
	<path class="st0" d="M12.4,56.1c0.6-1.3,0.7-2.7,1.2-4c1.5-3.5,3.7-6.4,7.1-8.3c0.7-0.4,0.9-0.8,0.9-1.6
		C21.4,32.1,30.8,24,40.7,25.5c0.7,0.1,1-0.1,1.3-0.7c2.9-6.5,7.8-10.5,14.8-11.8c5.2-1,10.1,0.1,14.5,3.1c1.7,1.1,3.2,2.4,4.5,4
		c0.2,0.2,0.4,0.4,0.4,0.7c-0.3-0.1-0.6-0.1-0.9-0.2c-3.3-1.3-6.7-1.5-10.1-0.6c-6.3,1.8-10.3,5.9-12,12.2c-0.2,0.6-0.5,0.9-1.1,1.1
		c-1.8,0.5-3.5,1.1-5.1,2.2c-4.2,2.9-6.8,6.8-7.5,11.9c-0.6,4.2,0.5,8,2.8,11.5c0.4,0.6,0.3,1-0.1,1.6c-1.8,2.6-2.7,5.4-2.8,8.5
		c-0.1,5.7,2.1,10.3,6.5,13.8c0.5,0.4,0.8,0.8,0.8,1.5c0.2,1.4,0.4,2.8,0.8,4.1c2.1,8.9,6.5,16.8,11.8,24.1c2.1,2.9,4.4,5.6,6.8,8.3
		c1.7,1.9,3.4,3.7,5.2,5.5c0.1,0.1,0.4,0.7,0.6,0c0.5-0.1,0.9,0.2,1.1,0.7c-1.6,0-3.1,0-4.7,0c-0.1-0.3-0.4-0.2-0.6-0.2
		c-2.3-0.3-4.6-0.7-6.9-1.3c-9.1-2.5-16.9-6.9-22.6-14.5c-3.7-5-6.8-10.3-9.2-16c-0.4-0.9-0.9-1.5-1.9-1.9c-3.6-1.6-6.4-4.1-8.2-7.7
		c-2.1-4.1-2.3-8.4-0.9-12.7c0.2-0.6,0.3-1-0.2-1.5c-2.3-1.9-3.6-4.4-4.6-7.1c-0.4-1-0.4-2.2-1-3.1C12.4,59.2,12.4,57.7,12.4,56.1z"
		/>
	<path class="st0" d="M73.1,126.8c-0.2-0.5-0.6-0.7-1.1-0.7c-0.5-2-1.1-3.9-1.6-5.9c-1.3-5-2.7-9.9-3.9-14.9
		c-2.1-8.3-4.5-16.5-5.5-25c-0.5-4.6-0.5-9.3,0.8-13.8c0.6-2.1,0.6-4,0.1-6.1c-0.9-3.4-1.6-6.9-2.4-10.4c-0.3-1.3,0.1-2.5,1.1-3.3
		c1.1-0.9,2.3-1.1,3.6-0.4c1.5,0.7,1.8,2.1,2.1,3.4c0.3,1.4,0.6,2.7,1,4.3c1.7-2.2,3.4-4,5.3-5.6c3.1-2.6,6.6-4.5,10.4-5.9
		c4-1.4,8.2-2,12.2-3.1c2.1-0.6,3.7,0.4,4.2,2.5c0.5,1.6-0.6,3.3-2.5,3.9c-0.7,0.2-1.5,0.4-2.2,0.6c-1.4,0.4-2.8,0.6-4.3,1.2
		c2.6,1.9,5,3.7,7.5,5.5c1.8,1.3,2.2,3.2,0.9,5c-1,1.4-3.1,1.7-4.8,0.5c-3.6-2.7-7.3-5.3-10.9-8c-0.5-0.4-0.9-0.4-1.4-0.2
		c-3.5,1.8-6.6,4.2-8.9,7.4c-3.9,5.3-5.3,11.4-5.4,17.9c0,0.8,0.2,0.9,0.9,0.6c1.9-1,3.9-2,5.9-3c0.8-0.4,1.6-0.7,2.6-0.5
		c1.3,0.4,2.6,1.6,2.7,2.8c0.2,1.3-0.7,2.9-2.1,3.6c-2.3,1.2-4.6,2.3-7,3.5c-2,1-2,1-1.6,3.2c0,0.2,0,0.4,0.1,0.5
		c2.3,9.2,4.5,18.4,6.8,27.7c0.9,3.7,1.8,7.5,2.7,11.2c-1,0.8-2.3,1-3.6,1.4C74.3,126.8,73.7,126.8,73.1,126.8z"/>
	<path class="st1" d="M78.4,125.4c-0.9-3.7-1.8-7.5-2.7-11.2c-2.3-9.2-4.5-18.4-6.8-27.7c0-0.2-0.1-0.4-0.1-0.5
		c-0.4-2.2-0.4-2.2,1.6-3.2c2.3-1.2,4.7-2.3,7-3.5c1.4-0.7,2.3-2.3,2.1-3.6c-0.2-1.2-1.4-2.4-2.7-2.8c-0.9-0.3-1.8,0-2.6,0.5
		c-2,1-3.9,1.9-5.9,3c-0.7,0.4-0.9,0.2-0.9-0.6c0.1-6.5,1.5-12.6,5.4-17.9c2.3-3.2,5.4-5.6,8.9-7.4c0.5-0.3,0.9-0.2,1.4,0.2
		c3.6,2.7,7.3,5.3,10.9,8c1.6,1.2,3.8,1,4.8-0.5c1.3-1.8,0.9-3.7-0.9-5c-2.5-1.8-4.9-3.6-7.5-5.5c1.5-0.6,3-0.8,4.3-1.2
		c0.7-0.2,1.5-0.4,2.2-0.6c1.9-0.6,2.9-2.2,2.5-3.9c-0.6-2-2.2-3-4.2-2.5c-4.1,1.1-8.3,1.7-12.2,3.1c-3.8,1.3-7.3,3.2-10.4,5.9
		c-1.9,1.6-3.5,3.4-5.3,5.6c-0.4-1.6-0.7-3-1-4.3c-0.3-1.4-0.6-2.7-2.1-3.4c-1.4-0.6-2.6-0.5-3.6,0.4c-1,0.8-1.4,2-1.1,3.3
		c0.8,3.5,1.5,6.9,2.4,10.4c0.5,2.1,0.5,4-0.1,6.1c-1.3,4.5-1.3,9.1-0.8,13.8c0.9,8.5,3.4,16.7,5.5,25c1.3,5,2.6,9.9,3.9,14.9
		c0.5,2,1,3.9,1.6,5.9c-0.2,0.7-0.4,0.1-0.6,0c-1.8-1.8-3.6-3.5-5.2-5.5c-2.3-2.7-4.7-5.5-6.8-8.3C54,105,49.7,97.2,47.6,88.3
		c-0.3-1.4-0.6-2.7-0.8-4.1c-0.1-0.7-0.4-1.1-0.8-1.5c-4.5-3.5-6.7-8.2-6.5-13.8c0.1-3.1,1.1-6,2.8-8.5c0.4-0.5,0.5-1,0.1-1.6
		c-2.3-3.5-3.4-7.3-2.8-11.5c0.7-5.1,3.3-9,7.5-11.9c1.5-1.1,3.3-1.7,5.1-2.2c0.6-0.2,0.9-0.4,1.1-1.1c1.7-6.3,5.8-10.4,12-12.2
		c3.4-1,6.8-0.8,10.1,0.6c0.3,0.1,0.6,0.1,0.9,0.2c0.6,0.5,0.8-0.1,1-0.4c3.3-4,7.4-6.6,12.5-7.3c8.2-1.2,14.9,1.8,19.8,8.5
		c2.5,3.4,3.7,7.3,3.7,11.6c0,0.7,0.3,1,0.9,1.2c6.6,2.8,10.7,7.8,12.2,14.8c1.6,7.5-1.9,15.9-8.3,20.1c-1.4,0.9-1.4,0.9-0.4,2.2
		c2.9,3.8,3.4,8,2.3,12.5c-0.5,1.8-2.2,2.7-4.1,2.3c-3.8-0.7-7.6-1.5-11.5-2.2c-8.3-1.4-16.5,4.7-17.8,13.1c-0.4,2.8,0,5.5,0.5,8.2
		c1.1,5.5-0.1,10.5-3.6,14.9C81.9,122.1,80.6,124.1,78.4,125.4z"/>
</g>
<text transform="matrix(1 0 0 1 136.7516 99.3)" class="st2 st3 st4">RAMBER</text>
</svg>
