<?xml version="1.0" encoding="utf-8"?>
<!-- Generator: Adobe Illustrator 26.0.3, SVG Export Plug-In . SVG Version: 6.00 Build 0)  -->
<svg version="1.1" id="Layer_1" xmlns="http://www.w3.org/2000/svg" xmlns:xlink="http://www.w3.org/1999/xlink" x="0px" y="0px"
	 viewBox="0 0 98.4 118.3" style="enable-background:new 0 0 98.4 118.3;" xml:space="preserve">
<style type="text/css">
	.st0{fill:none;stroke:#7EC243;stroke-width:0.25;}
</style>
<g>
	<path class="st0" d="M76.3,63.9c1.2,1.3,2.1,2.7,2.4,4.4c0.6,4-2.2,8.5-6.4,10.3c-2.1,0.8-4.2,1.1-6.4,1.3
		c-4.6,0.4-8.2,2.3-10.4,6.5c-1.2,2.3-1.1,4.7-1,7.2c0.1,2.8,0.5,5.5,0.7,8.3c0.1,1.6,0.2,3.3-0.1,4.9c-0.6,3.7-2.6,5.5-6.3,4.9
		c-6.9-1.3-13.5-3.2-19.1-7.7c-4.1-3.3-7.5-7.3-9.9-11.9c-0.3-0.6-0.7-0.8-1.4-0.8C10,91.8,7.2,83.7,9.2,78.5c0.3-0.7,0.2-1-0.6-1.4
		c-4.2-1.8-6.4-5.3-7-9.7c-0.6-3.9,0.3-7.5,3-10.6c0.4-0.4,0.3-0.5,0-0.9c-5.8-6-5-16.1,1.8-21c0.8-0.6,1-0.9,0.5-1.9
		c-3.2-6.3-0.1-13.8,6.4-15.8c2.1-0.7,4.3-0.6,6.4,0c0.7,0.2,1.1,0.1,1.4-0.7c0.8-2,1.8-3.8,3.2-5.5c4.1-4.9,10.2-6.2,15.9-3.3
		c1.6,0.8,3,1.8,4.2,3c0.2,0.2,0.4,0.5,0.9,0.5c3.6-0.6,6.4,1,8.8,3.5c0.5,0.5,0.9,1.4,1.3,1.4c0.5,0,1-0.8,1.5-1.2
		c3.1-2.7,6.1-3.2,9.5-1.5c2.4,1.2,3.4,3.3,4,5.7c0.1,0.5,0.2,1,0.2,1.5c0.2,1.8,0.2,1.8,2,1.5c1.9-0.3,3.8-0.4,5.7,0
		c4,0.9,6.4,3.7,6.7,7.8c0.1,1.2,0.1,2.4,0,3.6c-0.1,0.7,0.1,0.8,0.8,0.7c1.8-0.3,3.5-0.2,5.3,0.3c3.8,1.2,6.4,4.6,6.3,8.9
		c-0.2,7.3-3.5,12.7-9.8,16.4c-3.2,1.8-6.7,2.9-10.2,3.8C77,63.7,76.7,63.8,76.3,63.9z"/>
	<path class="st0" d="M51.7,106.3C47.8,99.9,45,93,43.5,85.7c-0.7-3.3-1-6.7-1.1-10c0-0.7,0.2-1.4,0.5-2c2.6-4.5,6.4-7.7,10.8-10.3
		c0.3-0.2,0.6-0.3,0.8-0.5c0.9-0.6,1.1-1.5,0.7-2.3c-0.5-0.9-1.4-1.2-2.4-0.6c-3,1.6-5.7,3.6-8.1,6c-0.5,0.5-1.1,1-1.7,1.6
		c0.2-1.5,0.5-3,0.9-4.5c0.9-3.7,2.2-7.3,3.9-10.7c0.3-0.5,0.6-0.9,1.1-1.2c3.7-2.1,7.6-2.4,11.7-1.9c0.5,0.1,1,0.2,1.5,0.2
		c1,0.1,1.8-0.4,2-1.3c0.2-1-0.3-1.8-1.4-2c-3.6-0.7-7.2-0.8-10.9,0.1c-0.2,0-0.4,0.1-0.7,0.1c2.5-4,5.4-7.6,8.8-10.8
		c1-0.9,1.2-1.9,0.4-2.7c-0.7-0.8-1.7-0.8-2.8,0.2c-2.5,2.3-4.6,4.9-6.6,7.7c-0.3-0.2-0.3-0.5-0.3-0.7c-0.2-2.7-0.1-5.5,0.6-8.1
		c0.2-0.8,0.5-1.5,0.9-2.1c0.5-0.9,0.3-1.8-0.5-2.3c-0.8-0.5-1.7-0.3-2.3,0.5c-1.2,1.7-1.7,3.7-2,5.8c-0.5,3.6-0.5,7.1,0.7,10.6
		c0.1,0.3,0.1,0.5-0.1,0.8c-2.7,4.4-4.9,9.1-6.5,14.1c-1.3-0.8-2.3-1.9-3.1-3.1c-1.8-2.4-3.1-5-4.2-7.8c-0.2-0.4-0.3-0.8-0.5-1.1
		c-0.5-0.7-1.3-0.9-2.1-0.5c-0.7,0.4-1.2,1.1-0.9,1.8c2,5.3,4.4,10.5,9.4,13.8c0.4,0.3,0.5,0.4,0.4,0.9c-1.5,6.4-1.8,12.8-1,19.3
		c0,0.1,0,0.3,0,0.6c-2-1.7-3.2-3.8-4.2-6c-0.4-0.9-0.7-1.9-0.7-3c0-0.9-0.5-1.5-1.4-1.7c-0.9-0.1-1.6,0.3-1.8,1.2
		c-0.3,0.9-0.1,1.8,0.1,2.6c1.1,3.7,3,6.9,6,9.5c0.4,0.3,0.8,0.7,1.2,0.8c1.5,0.3,1.8,1.4,2.1,2.7c1.4,6.1,3.8,11.8,6.7,17.2
		c0.3,0.5,0.5,0.9,0.8,1.5c-1.1-0.1-2-0.6-2.8-1.1c-3.8-2.3-6.8-5.6-9.3-9.2c-5-6.9-8.6-14.5-10.1-23c-0.2-1.3-0.3-2.5-0.4-3.8
		c-0.2-1.3-0.7-1.8-2-1.8c-1,0-1.9-0.2-2.8-0.4c-2.1-0.6-3.6-1.9-4.2-4.1c-0.6-2.4-0.1-4.6,1.6-6.4c0.7-0.8,1.7-1.1,2.8-1.1
		c1,0,1.7-0.3,1.9-1.3c0.3-1-0.3-1.7-1.2-2.1c-2-1.1-3.5-2.6-3.9-4.9c-0.9-4.7,2.8-9,7.7-8.9c1.1,0,2.2,0.2,3.2,0.6
		c0.9,0.3,1.8,0.3,2.3-0.7c0.5-0.9,0.2-1.6-0.5-2.3c-1.3-1.3-2.4-2.7-3.2-4.4c-1.2-2.5-0.6-4.7,1.2-6.7c1.8-1.9,3.9-2.4,6.4-1.6
		c0.9,0.3,1.6,0.7,2.3,1.2c0.7,0.5,1.4,0.6,2.1,0.2c0.7-0.4,0.9-1.1,0.8-1.9c-0.3-1.5-0.3-3-0.1-4.6c0.6-3.9,6.1-6.3,9.4-4.1
		c1.6,1.1,2.9,2.5,3.9,4.2c1,1.6,2,1.7,3.4,0.3c0.9-1,1.8-2,2.8-2.9c3-2.3,6.3-1.2,7.2,2.4c0.4,1.5,0.5,3,0.4,4.5
		c-0.1,2.1,0.8,2.9,2.9,2.2c2.2-0.7,4.5-1.1,6.8-0.8c2.9,0.3,4.5,2,4.8,4.9c0.2,2-0.1,3.9-0.5,5.8c-0.3,1.7,0.7,2.6,2.3,2.1
		c0.9-0.2,1.8-0.4,2.7-0.6c5.1-0.8,8.5,2.6,7.7,7.7c-1,6-4.4,10.2-10,12.6c-3.7,1.6-7.6,2.6-11.6,3.1c-1,0.1-1.8,0.4-2,1.4
		c-0.2,1,0.4,1.7,1.3,2c0,0,0.1,0,0.1,0.1c2,1.2,4,2.5,3.7,5.2c-0.3,2.9-2.1,4.8-4.8,5.8c-2.1,0.7-4.3,0.8-6.5,1.1
		c-6.8,0.8-10.9,5.5-12.4,10.2c-0.8,2.4-0.6,4.8-0.5,7.3c0.2,3.5,0.8,7,0.7,10.5C51.8,105.2,51.7,105.7,51.7,106.3z"/>
	<path class="st0" d="M41.2,12.7c-3.1,1.8-4.4,4.6-4.6,8c0,0.6,0,0.9-0.8,0.7c-4.1-1.2-7.5,0-10.2,3.3c-2.7,3.4-2.9,6.9-0.8,10.7
		c0.6,1,0.5,1-0.6,1.1c-4.3,0.6-7.4,2.9-9,7c-1.6,4.1-0.8,7.8,2.1,11.1c-2,1.4-3.3,3.3-3.9,5.7c-1.5,5.7,2,11.1,7.9,12
		c0.9,0.1,1.2,0.4,1.3,1.3c1.6,11.4,6.6,21.2,14,30c0.2,0.2,0.5,0.4,0.5,0.8c-0.4,0.2-0.6-0.1-0.8-0.2c-6.3-3.5-11-8.6-14.2-15
		c-0.7-1.4-1.1-1.7-2.7-1.4c-0.2,0-0.5,0.1-0.7,0.1c-4.8,0.5-7.7-3.2-6.3-7.9c0.3-0.9,0.7-1.7,1.2-2.5c0.8-1.3,0.3-2.6-1.2-2.8
		c-4.9-0.5-7.8-5.4-7.4-10c0.2-2.9,1.4-5.2,3.9-6.8c1.2-0.8,1.2-2.2,0-3c-6.2-4.1-6.2-13.2,0-17.4c0.5-0.3,1-0.6,1.6-0.9
		c1.4-0.7,1.7-1.7,0.7-3c-1.3-1.8-2.3-3.8-2.1-6.2c0.4-5,5.1-8.1,10.2-6.7c0.5,0.1,0.9,0.3,1.4,0.5c1.7,0.6,2.4,0.3,3-1.4
		c0.7-2,1.6-3.9,2.8-5.7C30.2,8.4,36.4,8.4,41.2,12.7z"/>
</g>
</svg>
