<?xml version="1.0" encoding="utf-8"?>
<!-- Generator: Adobe Illustrator 26.0.3, SVG Export Plug-In . SVG Version: 6.00 Build 0)  -->
<svg version="1.1" id="hamber" xmlns="http://www.w3.org/2000/svg" xmlns:xlink="http://www.w3.org/1999/xlink" x="0px" y="0px"
	 viewBox="0 0 256 300" style="enable-background:new 0 0 256 300;" xml:space="preserve">
<style type="text/css">
	.st0{fill:#56C125;}
	.st1{fill:#70D940;}
	.st2{fill:#4A4A55;}
	.st3{font-family:'Arial';}
	.st4{font-size:47.3612px;}
</style>
<g>
	<path class="st0" d="M37.6,95.5c0.9-2,1.1-4.3,1.9-6.3C42,83.6,45.4,79,50.8,76.1c1.1-0.6,1.4-1.3,1.4-2.5
		c-0.3-16,14.5-28.9,30.2-26.5c1.1,0.2,1.5-0.1,2-1.1c4.6-10.3,12.4-16.6,23.5-18.7c8.3-1.6,16,0.2,23,4.9c2.7,1.8,5.1,3.7,7.1,6.3
		c0.2,0.3,0.6,0.6,0.6,1c-0.4-0.1-0.9-0.2-1.3-0.3c-5.2-2.1-10.6-2.4-16-0.9c-9.9,2.9-16.3,9.4-19,19.3c-0.3,1-0.7,1.4-1.7,1.7
		c-2.8,0.7-5.6,1.8-8,3.5c-6.6,4.6-10.8,10.7-11.9,18.8c-0.9,6.7,0.7,12.6,4.4,18.1c0.7,1,0.4,1.6-0.2,2.5
		c-2.8,4.1-4.3,8.6-4.4,13.5c-0.2,8.9,3.3,16.3,10.3,21.8c0.7,0.6,1.2,1.3,1.3,2.3c0.3,2.2,0.7,4.4,1.2,6.5
		c3.4,14.1,10.2,26.5,18.7,38c3.4,4.6,7,8.9,10.7,13.2c2.6,3,5.4,5.8,8.3,8.6c0.2,0.2,0.6,1.1,0.9,0c0.8-0.1,1.4,0.3,1.8,1.1
		c-2.5,0-4.9,0-7.4,0c-0.2-0.5-0.6-0.3-0.9-0.4c-3.7-0.4-7.3-1.2-10.9-2.1c-14.3-3.9-26.7-10.8-35.7-22.9
		c-5.9-7.8-10.7-16.3-14.5-25.3c-0.6-1.5-1.5-2.3-2.9-2.9c-5.7-2.5-10.1-6.6-13-12.1c-3.4-6.5-3.6-13.2-1.4-20.1
		c0.3-0.9,0.5-1.6-0.4-2.3c-3.6-3-5.7-6.9-7.3-11.2c-0.6-1.6-0.7-3.4-1.5-4.9C37.6,100.4,37.6,97.9,37.6,95.5z"/>
	<path class="st0" d="M133.5,207.2c-0.4-0.7-0.9-1.1-1.8-1.1c-0.8-3.1-1.7-6.2-2.5-9.3c-2.1-7.9-4.2-15.7-6.2-23.6
		c-3.3-13.1-7.2-26-8.6-39.5c-0.8-7.3-0.8-14.6,1.3-21.8c1-3.3,1-6.3,0.1-9.6c-1.4-5.4-2.6-10.9-3.8-16.4c-0.5-2.1,0.2-3.9,1.7-5.2
		c1.7-1.4,3.6-1.7,5.7-0.7c2.4,1.1,2.8,3.2,3.3,5.4c0.5,2.2,1,4.3,1.6,6.8c2.7-3.4,5.3-6.3,8.3-8.9c4.9-4.1,10.4-7.1,16.4-9.2
		c6.3-2.2,12.9-3.2,19.3-5c3.3-0.9,5.8,0.7,6.7,3.9c0.7,2.6-0.9,5.2-3.9,6.1c-1.2,0.4-2.4,0.6-3.5,1c-2.2,0.7-4.5,0.9-6.8,1.9
		c4.1,3,7.9,5.8,11.8,8.6c2.8,2,3.5,5.1,1.5,7.9c-1.6,2.3-5,2.6-7.5,0.7c-5.8-4.2-11.5-8.4-17.3-12.7c-0.8-0.6-1.4-0.7-2.2-0.3
		c-5.6,2.8-10.4,6.6-14.1,11.7c-6.1,8.4-8.4,18-8.5,28.2c0,1.2,0.3,1.5,1.4,0.9c3.1-1.6,6.2-3.1,9.3-4.7c1.3-0.6,2.6-1.1,4.1-0.7
		c2.1,0.6,4.1,2.5,4.3,4.4c0.3,2.1-1,4.5-3.3,5.7c-3.6,1.9-7.3,3.7-11,5.5c-3.2,1.6-3.2,1.6-2.6,5c0.1,0.3,0.1,0.6,0.1,0.9
		c3.6,14.6,7.1,29.2,10.7,43.7c1.4,5.9,2.9,11.8,4.3,17.7c-1.6,1.3-3.7,1.6-5.6,2.2C135.4,207.2,134.4,207.2,133.5,207.2z"/>
	<path class="st1" d="M141.9,205.1c-1.4-5.9-2.9-11.8-4.3-17.7c-3.6-14.6-7.1-29.2-10.7-43.7c-0.1-0.3-0.1-0.6-0.1-0.9
		c-0.6-3.4-0.6-3.4,2.6-5c3.7-1.8,7.4-3.6,11-5.5c2.3-1.2,3.6-3.6,3.3-5.7c-0.3-1.9-2.2-3.9-4.3-4.4c-1.5-0.4-2.8,0.1-4.1,0.7
		c-3.1,1.5-6.2,3.1-9.3,4.7c-1.1,0.6-1.4,0.3-1.4-0.9c0.1-10.2,2.4-19.9,8.5-28.2c3.7-5,8.5-8.8,14.1-11.7c0.8-0.4,1.4-0.3,2.2,0.3
		c5.7,4.3,11.5,8.5,17.3,12.7c2.6,1.9,6,1.5,7.5-0.7c2-2.9,1.4-5.9-1.5-7.9c-3.9-2.8-7.7-5.6-11.8-8.6c2.3-1,4.7-1.2,6.8-1.9
		c1.2-0.4,2.4-0.6,3.5-1c3-0.9,4.6-3.5,3.9-6.1c-0.9-3.2-3.4-4.8-6.7-3.9c-6.4,1.8-13,2.7-19.3,5c-6,2.1-11.5,5.1-16.4,9.2
		c-3,2.5-5.6,5.4-8.3,8.9c-0.6-2.5-1.1-4.7-1.6-6.8c-0.5-2.2-0.9-4.3-3.3-5.4c-2.1-1-4.1-0.7-5.7,0.7c-1.5,1.3-2.2,3.2-1.7,5.2
		c1.2,5.5,2.4,11,3.8,16.4c0.8,3.3,0.8,6.3-0.1,9.6c-2.1,7.1-2.1,14.4-1.3,21.8c1.5,13.5,5.3,26.4,8.6,39.5c2,7.9,4.1,15.7,6.2,23.6
		c0.8,3.1,1.7,6.2,2.5,9.3c-0.3,1.1-0.7,0.2-0.9,0c-2.8-2.8-5.7-5.6-8.3-8.6c-3.7-4.3-7.4-8.6-10.7-13.2c-8.5-11.6-15.3-24-18.7-38
		c-0.5-2.2-1-4.3-1.2-6.5c-0.1-1.1-0.6-1.8-1.3-2.3c-7.1-5.6-10.5-12.9-10.3-21.8c0.1-4.9,1.7-9.4,4.4-13.5c0.6-0.9,0.8-1.5,0.2-2.5
		c-3.6-5.5-5.3-11.5-4.4-18.1c1.1-8.1,5.3-14.3,11.9-18.8c2.4-1.7,5.2-2.7,8-3.5c1-0.3,1.4-0.7,1.7-1.7c2.7-10,9.1-16.4,19-19.3
		c5.4-1.6,10.7-1.2,16,0.9c0.4,0.2,0.9,0.2,1.3,0.3c0.9,0.8,1.2-0.2,1.6-0.6c5.2-6.3,11.7-10.5,19.7-11.6c13-1.8,23.5,2.8,31.2,13.4
		c3.9,5.4,5.9,11.6,5.8,18.3c0,1.1,0.4,1.5,1.4,1.9c10.5,4.5,17,12.3,19.3,23.5c2.5,11.9-3,25.2-13.1,31.8c-2.2,1.4-2.2,1.4-0.6,3.4
		c4.6,5.9,5.4,12.6,3.6,19.7c-0.7,2.8-3.4,4.3-6.5,3.7c-6-1.2-12.1-2.4-18.1-3.5c-13.1-2.2-26.1,7.5-28.1,20.8
		c-0.7,4.4,0,8.6,0.9,12.9c1.7,8.7-0.2,16.6-5.6,23.5C147.5,199.7,145.3,203,141.9,205.1z"/>
</g>
<text transform="matrix(1 0 0 1 28.5906 265.2)" class="st2 st3 st4">RAMBER</text>
</svg>
